<svg width="21" height="20" viewBox="0 0 21 20" fill="none" xmlns="http://www.w3.org/2000/svg">
<path fill-rule="evenodd" clip-rule="evenodd" d="M10.5 0C4.97 0 0.5 4.47 0.5 10C0.5 15.53 4.97 20 10.5 20C16.03 20 20.5 15.53 20.5 10C20.5 4.47 16.03 0 10.5 0ZM10.5 18C6.09 18 2.5 14.41 2.5 10C2.5 5.59 6.09 2 10.5 2C14.91 2 18.5 5.59 18.5 10C18.5 14.41 14.91 18 10.5 18ZM10.5 8.59L14.09 5L15.5 6.41L11.91 10L15.5 13.59L14.09 15L10.5 11.41L6.91 15L5.5 13.59L9.09 10L5.5 6.41L6.91 5L10.5 8.59Z" fill="#49454F"/>
</svg>
